<?xml version="1.0" encoding="utf-8"?>
<!-- Generator: Adobe Illustrator 26.2.1, SVG Export Plug-In . SVG Version: 6.00 Build 0)  -->
<svg version="1.1" id="Lag_1" xmlns="http://www.w3.org/2000/svg" xmlns:xlink="http://www.w3.org/1999/xlink" x="0px" y="0px"
	 viewBox="0 0 873 262.8" style="enable-background:new 0 0 873 262.8;" xml:space="preserve">
<style type="text/css">
	.st0{fill:#FFFFFF;stroke:#000000;stroke-miterlimit:10;}
	.st1{fill:#FFFFFF;}
	.st2{fill:#D08181;}
	.st3{font-family:'BookAntiqua';}
	.st4{font-size:72px;}
</style>
<g>
	<path class="st0" d="M178.2,68"/>
	<path class="st1" d="M218.3,147c11.4-0.4,17.1-0.6,20.8-3c7.9-5,9.8-15.3,11.3-23.2c0.8-4,1.8-11.9,0-22.3
		C246,73.7,229.1,58,226.9,56c-19-17-45.1-22.8-62-18c-0.7,0.2-1.3,0.4-1.7,0.5c-2.2,0.7-21.2,6.8-32.5,19.1
		c-12.4,13.5-11.9,30.4-13.8,30c-1.6-0.3-1.2-11.8,0.6-20.6c0.6-3.1,1.4-6,1.7-7c1.8-5.5,3.8-8.3,4.6-13c0.4-2.2,2.6-16-6-26.6
		c-3.4-4.2-7.4-6.6-10.1-7.8c-8.2,15.3-7.3,24.6-5,30.3c4.1,10.3,9.9,11.8,14.1,20.6c5.4,11.3,1.5,24,0,24.1
		c-1.4,0.1-0.5-12.2-8.9-24.3c-1.5-2.1-5.9-7.4-13.1-12.3c-4-2.8-15-9.9-22.8-6.4c-17,7.6-1.4,77.2-2.1,77.3c-0.4,0-3-15.5-4.2-22.4
		C60,66.8,57,50.4,49.9,48.9C42.3,47.3,30.5,61,25.1,70c-0.3,0.4-0.5,0.8-0.6,1C17.1,83.4,5.3,130.2,29,178.9
		c0.8,1.7,9.3,18.8,26.1,35.4c7.3,7.2,14.3,12.4,23.5,14.4c6.7,1.4,15,1.5,15.6-0.6c0.5-1.7-4.4-3.8-9.1-7.8
		c-7.8-6.6-11-14.7-14.1-23.4c-9.4-25.4-8.8-53.9-8-54c0.4,0,0.2,10.3,4.4,27.1c3.6,14.6,8.1,24.4,11.3,31.2c0,0,2.5,5.3,8.3,14.4
		c1,1.5,4.8,7.5,11.7,11.9c1.2,0.8,2,1.2,2.3,0.9c0.9-0.8-5.8-7.5-10.7-19.3c-5.3-12.7-5.4-24.1-5.5-41c-0.1-9.4,0.7-17.2,1.2-17.2
		c0.7,0-0.7,20.1,5.2,44.7c3.1,12.8,7.5,29.9,18.8,33.3c1,0.3,7.1,2,12.1-1.2c3.2-2.1,4.6-5.4,6.7-10.4c1.7-4,2.4-7.5,3.1-10.7
		c0.4-2.1,0.9-4.8,1.2-7.9c0.5-5.1,0.4-8.9,0.3-12.2l0,0c1,17.2,4.4,32,15,39.1c3.4,2.3,6.3,2.9,12.2,4.3l0,0
		c1.9,0.5,7.8,2.1,17.3,1.4c0,0,8.5-0.6,15.7-2.9c24.3-7.8,58.2-68.3,47.8-77.2c-1.8-1.5-6.7-1.3-16.6-0.7c-6,0.3-9.9,1.1-15.9,0
		c-4.1-0.7-8.6-2.2-8.5-3C200.4,146.6,207.4,147.4,218.3,147z M192.1,203.3c-1.5,0.7-12.9,6.1-21.1-0.2c-4.6-3.6-5.8-8.9-6.3-11.3
		c-0.5-2.6-2.1-10.3,2.2-14.6c4.1-4.2,11.2-2.7,18.8-1.3c4.6,0.9,8.8,1.8,12.4,5.4c1,1,5.1,5.2,4.6,10.5
		C201.9,198.5,194.6,202.1,192.1,203.3z M184.7,119.6c-9.5,2.2-14.7,3.5-18.8,0.7c-4.9-3.4-5.2-10.6-5.5-17
		c-0.3-6.9-0.6-14.9,4.6-19.3c7.4-6.2,20.5-0.3,24.8,1.6c0,0,9.3,4.2,15.1,13.5c1.8,2.8,2.5,4.9,2.2,7.1c-0.6,4.4-4.8,6.9-5.7,7.5
		C197.5,115.6,191.9,117.9,184.7,119.6z"/>
	<g>
		<path class="st1" d="M138.8,130.5c0.1,0.3,0.1,0.4,0.1,0.4C138.9,130.9,138.9,130.8,138.8,130.5z"/>
	</g>
</g>
<path class="st2" d="M174.4,251.4"/>
<text transform="matrix(1 0 0 1 322.0469 163.4121)" class="st1 st3 st4">METTE BORRE</text>
</svg>
